@startuml



skinparam classAttributeIconSize 0
class Manager {
-manID int
-sName String
-fName String
}

class Branch{
-bno int
-name String
-telNo String
}

class Staff{
-staffID int
-sName String
-fName String
-telNo String
+registerStaff(int,String,String,String)
+getStaffName(int): String
}

Manager -- "1..3" Branch: Manages a >
Staff -- "0..1" Manager : > is a
Staff "0..*" -- Branch: works at >

@enduml